<?xml version="1.0" encoding="iso-8859-1"?>
<!-- Generator: Adobe Illustrator 19.0.0, SVG Export Plug-In . SVG Version: 6.00 Build 0)  -->
<svg version="1.1" id="Layer_1" xmlns="http://www.w3.org/2000/svg" xmlns:xlink="http://www.w3.org/1999/xlink" x="0px" y="0px"
	 viewBox="0 0 231.62 231.62" style="enable-background:new 0 0 231.62 231.62;" xml:space="preserve">
<g>
	<g>
		<g>
			<path d="M230.449,46.774L184.843,1.169c-0.812-0.812-1.926-1.203-3.07-1.164c-1.144,0.07-2.203,0.625-2.91,1.527
				c-0.715,0.914-1.492,1.801-2.328,2.641c-9.973,9.969-25.859,10.961-36.969,2.324c-1.59-1.238-3.856-1.106-5.285,0.328
				L1.171,139.934c-1.562,1.562-1.562,4.094,0,5.656l84.852,84.855c0.75,0.75,1.766,1.172,2.828,1.172s2.078-0.422,2.828-1.172
				L224.793,97.333c1.426-1.426,1.566-3.692,0.328-5.285c-8.641-11.106-7.644-26.996,2.324-36.965
				c0.836-0.836,1.715-1.613,2.625-2.32c0.91-0.703,1.469-1.762,1.543-2.91C231.682,48.708,231.26,47.587,230.449,46.774z
				 M216.765,94.048L88.851,221.962l-79.195-79.2l127.91-127.91c14.039,8.856,32.652,6.945,44.625-5.024l39.598,39.598
				C209.82,61.391,207.913,80.005,216.765,94.048z"/>
			<path d="M168.046,40.942c-6.234,6.234-6.234,16.383,0,22.625c3.121,3.121,7.219,4.68,11.316,4.68
				c4.094,0,8.192-1.558,11.312-4.68c3.024-3.024,4.688-7.039,4.688-11.312c0-4.277-1.664-8.293-4.688-11.312
				C184.432,34.696,174.288,34.704,168.046,40.942z M187.363,52.255c0,2.137-0.832,4.144-2.344,5.656
				c-3.117,3.117-8.192,3.117-11.316,0c-3.117-3.121-3.117-8.195,0-11.312c3.117-3.121,8.199-3.117,11.316,0
				C186.531,48.11,187.363,50.118,187.363,52.255z"/>
			
				<rect x="37.923" y="88.101" transform="matrix(0.7071 -0.7071 0.7071 0.7071 -37.5151 93.6309)" width="112.685" height="7.999"/>
			
				<rect x="65.818" y="123.459" transform="matrix(0.7071 -0.7071 0.7071 0.7071 -59.6183 110.9861)" width="76.689" height="7.999"/>
			
				<rect x="129.864" y="94.664" transform="matrix(-0.7071 -0.7071 0.7071 -0.7071 127.3961 338.7846)" width="7.999" height="96.686"/>
		</g>
	</g>
</g>
<g>
</g>
<g>
</g>
<g>
</g>
<g>
</g>
<g>
</g>
<g>
</g>
<g>
</g>
<g>
</g>
<g>
</g>
<g>
</g>
<g>
</g>
<g>
</g>
<g>
</g>
<g>
</g>
<g>
</g>
</svg>
